/* XPM */
static char * nsnake32_xpm[] = {
"32 32 113 2",
"  	c None",
". 	c #000000",
"+ 	c #FF0000",
"@ 	c #003900",
"# 	c #00C900",
"$ 	c #00F400",
"% 	c #00B800",
"& 	c #001100",
"* 	c #470000",
"= 	c #DE0000",
"- 	c #D40000",
"; 	c #530000",
"> 	c #001C00",
", 	c #00E700",
"' 	c #004C00",
") 	c #000C00",
"! 	c #009E00",
"~ 	c #009500",
"{ 	c #001600",
"] 	c #00B900",
"^ 	c #00F100",
"/ 	c #DF0000",
"( 	c #450000",
"_ 	c #250000",
": 	c #A60000",
"< 	c #008D00",
"[ 	c #007F00",
"} 	c #002100",
"| 	c #00E100",
"1 	c #008F00",
"2 	c #000F00",
"3 	c #009100",
"4 	c #009D00",
"5 	c #F10000",
"6 	c #0A0000",
"7 	c #00D300",
"8 	c #002900",
"9 	c #005C00",
"0 	c #00EC00",
"a 	c #00A600",
"b 	c #00FB00",
"c 	c #00E400",
"d 	c #001B00",
"e 	c #00E300",
"f 	c #8A0000",
"g 	c #B00000",
"h 	c #2D0000",
"i 	c #00F000",
"j 	c #000B00",
"k 	c #00E800",
"l 	c #003500",
"m 	c #003600",
"n 	c #00FF00",
"o 	c #00F800",
"p 	c #000400",
"q 	c #000500",
"r 	c #390000",
"s 	c #B90000",
"t 	c #7C0000",
"u 	c #00F700",
"v 	c #000E00",
"w 	c #003300",
"x 	c #001A00",
"y 	c #0C0000",
"z 	c #EF0000",
"A 	c #00D900",
"B 	c #003200",
"C 	c #00A300",
"D 	c #009F00",
"E 	c #009000",
"F 	c #A10000",
"G 	c #210000",
"H 	c #410000",
"I 	c #DB0000",
"J 	c #009400",
"K 	c #001700",
"L 	c #00BB00",
"M 	c #00F200",
"N 	c #5A0000",
"O 	c #DA0000",
"P 	c #400000",
"Q 	c #006A00",
"R 	c #000A00",
"S 	c #002B00",
"T 	c #00F500",
"U 	c #292929",
"V 	c #BDBDBD",
"W 	c #D6D6D6",
"X 	c #101010",
"Y 	c #757575",
"Z 	c #717171",
"` 	c #282828",
" .	c #C1C1C1",
"..	c #FFFFFF",
"+.	c #575757",
"@.	c #010101",
"#.	c #E3E3E3",
"$.	c #030303",
"%.	c #A1A1A1",
"&.	c #454545",
"*.	c #303030",
"=.	c #BABABA",
"-.	c #D9D9D9",
";.	c #0C0C0C",
">.	c #ADADAD",
",.	c #3C3C3C",
"'.	c #5D5D5D",
").	c #8A8A8A",
"!.	c #DEDEDE",
"~.	c #020202",
"{.	c #A9A9A9",
"].	c #404040",
"^.	c #050505",
". . . . . . . . . . . . . . . . . . . . . . . . . . . . . . . . ",
". . . . . . . . . . . . . . . . . . . . . . . . . . . . . . . . ",
". . . . . . . . . . . . . . . . . . . . . . . . . . . . . . . . ",
". . . . . . . . . . . . . . . . . . . . . . . . . . . . . . . . ",
". . . . . . . . . . . . . . . . . . . . . . . . . . . . . . . . ",
". . . . . . . . . . . . . . . . . . . . . . . . . . . . . . . . ",
". . . . . . . . . . . . . . . . . . . . . . . . . . . . . . . . ",
". . . . . . . . . . . . . . . . . . . . . . . . . . . . . . . . ",
". . . . . . . . . . . . . . . . . . . . . . . . . . . . . . . . ",
". . . . . . . . . . . . . . . . . . . . . . . . . . . . . . . . ",
". . . + . . . . . . @ # $ % & . . . . . . . . . . . . . . . . . ",
". * = + - ; . . . > , ' ) ! ~ . { ] ^ ] { . . { ] ^ ] { . . { ] ",
". / ( + _ : . . . < [ . . } | . ! 1 2 3 4 . . ! 1 2 3 4 . . ! 1 ",
". 5 6 + . . . . . 7 8 9 0 a b . c d . > e . . c d . > e . . c d ",
". f g + h . . . . i j k l m n . o p . q o . . o p . q o . . o p ",
". . r + s t . . . u v k w l n . c x . > e . . c x . > e . . c x ",
". . . + y z . . . A B 9 0 C n . D < v E ! . . D < v E ! . . D < ",
". F G + H I . . . 3 J . . . . . K L M L K . . K L M L K . . K L ",
". N O + I P . . . x k Q R . . . . . . . . . . . . . . . . . . . ",
". . . + . . . . . . S L T 7 . . . . . . . . . . . . . . . . . . ",
". . . + . . . . . . . . . . . . . . . . . . . . . . . . . . . . ",
". . . . . . . . . . . . . . . . . . . . . . . . . . . . . . . . ",
". . . . . . . . . . . . . . . . . . . . . . . . . . . . . . . . ",
". U V . W X . . U V . W X . . U V . W X . . U V . W X . . U V . ",
". Y Z `  .. . . Y Z `  .. . . Y Z `  .. . . Y Z `  .. . . Y Z ` ",
"............+.............+.............+.............+.........",
"@.#.$.%.&.. . @.#.$.%.&.. . @.#.$.%.&.. . @.#.$.%.&.. . @.#.$.%.",
"*.=.. -.;.. . *.=.. -.;.. . *.=.. -.;.. . *.=.. -.;.. . *.=.. -.",
"..........+.............+.............+.............+...........",
">.,.'.).. . . >.,.'.).. . . >.,.'.).. . . >.,.'.).. . . >.,.'.).",
"!.~.{.].. . ^.!.~.{.].. . ^.!.~.{.].. . ^.!.~.{.].. . ^.!.~.{.].",
". . . . . . . . . . . . . . . . . . . . . . . . . . . . . . . . "};
